<?xml version="1.0" standalone="no"?>
<!DOCTYPE svg PUBLIC "-//W3C//DTD SVG 20010904//EN"
 "http://www.w3.org/TR/2001/REC-SVG-20010904/DTD/svg10.dtd">
<svg version="1.0" xmlns="http://www.w3.org/2000/svg"
 width="500.000000pt" height="500.000000pt" viewBox="0 0 500.000000 500.000000"
 preserveAspectRatio="xMidYMid meet">
<metadata>
Created by potrace 1.11, written by Peter Selinger 2001-2013
</metadata>
<g transform="translate(0.000000,500.000000) scale(0.100000,-0.100000)"
fill="#000000" stroke="none">
<path d="M0 2500 l0 -2500 2500 0 2500 0 0 2500 0 2500 -2500 0 -2500 0 0
-2500z m1530 825 l0 -695 -90 0 -90 0 0 365 0 365 -55 0 -55 0 0 -350 0 -350
-90 0 -90 0 0 670 0 670 90 0 90 0 0 -245 0 -245 55 0 55 0 0 255 0 255 90 0
90 0 0 -695z m1420 560 l0 -135 105 0 105 0 0 -75 0 -75 -105 0 -105 0 0 -135
0 -135 -90 0 -90 0 0 345 0 345 90 0 90 0 0 -135z m1500 -125 l0 -260 110 0
110 0 0 -80 0 -80 -110 0 -110 0 0 -355 0 -355 -95 0 -95 0 0 695 0 695 95 0
95 0 0 -260z m-2350 130 l0 -90 140 0 140 0 0 90 0 90 90 0 90 0 0 -305 0
-305 -320 0 -320 0 0 305 0 305 90 0 90 0 0 -90z m-1110 -16 c0 -55 -32 -239
-56 -322 -57 -195 -148 -357 -272 -480 -77 -77 -172 -152 -193 -152 -21 0
-125 108 -114 118 6 4 36 28 68 52 80 60 188 178 241 263 53 86 89 175 110
280 27 129 45 117 -169 117 l-185 0 0 75 0 75 285 0 285 0 0 -26z m3060 -3 c0
-93 -47 -277 -102 -400 l-29 -65 37 -54 c43 -61 155 -179 229 -239 l50 -41
-65 -60 -65 -60 -26 19 c-43 31 -166 155 -210 214 -23 30 -44 55 -48 55 -3 0
-36 -35 -72 -78 -62 -72 -199 -196 -261 -236 l-27 -18 -66 59 c-67 58 -67 58
-44 73 116 76 264 220 336 325 75 111 134 246 148 337 l7 43 -211 -3 -211 -3
0 80 0 81 315 0 315 0 0 -29z m-1100 -791 l0 -190 -350 0 -350 0 0 -50 0 -50
360 0 360 0 0 -75 0 -75 -450 0 -450 0 0 200 0 200 350 0 350 0 0 40 0 40
-350 0 -350 0 0 75 0 75 440 0 440 0 0 -190z m60 -1060 l0 -380 -95 0 -95 0 0
165 0 165 -105 0 -105 0 0 80 0 80 105 0 105 0 0 135 0 135 95 0 95 0 0 -380z
m1440 130 l0 -250 110 0 110 0 0 -80 0 -80 -110 0 -110 0 0 -365 0 -365 -95 0
-95 0 0 695 0 695 95 0 95 0 0 -250z m-1920 -5 l0 -205 -210 0 -210 0 0 -67 0
-66 193 6 c165 6 312 21 420 43 l27 6 0 -70 0 -71 -52 -10 c-120 -24 -227 -32
-495 -38 l-283 -6 0 207 0 206 210 0 210 0 0 60 0 60 -210 0 -210 0 0 75 0 75
305 0 305 0 0 -205z m-1423 98 c-4 -49 -9 -97 -12 -108 -7 -25 57 -124 133
-206 63 -69 194 -159 287 -198 36 -15 67 -30 70 -33 6 -5 -91 -131 -105 -136
-13 -5 -152 62 -207 99 -67 46 -168 143 -218 211 l-43 57 -28 -42 c-41 -62
-131 -154 -200 -203 -65 -46 -212 -124 -235 -124 -12 0 -85 83 -111 125 -5 8
16 21 59 39 178 73 299 174 358 298 38 80 65 186 65 261 l0 47 96 0 97 0 -6
-87z m2963 -43 l0 -80 -225 0 -225 0 0 -306 0 -307 163 6 c142 5 358 33 410
53 15 5 17 -2 17 -74 l0 -80 -112 -21 c-166 -31 -281 -41 -485 -41 l-183 0 0
465 0 465 320 0 320 0 0 -80z m-1060 -895 l0 -275 -440 0 -440 0 0 270 0 270
90 0 90 0 0 -55 0 -55 260 0 260 0 0 60 0 60 90 0 90 0 0 -275z m-1370 -30 l0
-75 -640 0 -640 0 0 75 0 75 640 0 640 0 0 -75z"/>
<path d="M2100 3585 l0 -75 140 0 140 0 0 75 0 75 -140 0 -140 0 0 -75z"/>
<path d="M2310 1245 l0 -65 260 0 260 0 0 65 0 65 -260 0 -260 0 0 -65z"/>
</g>
</svg>
